<?xml version="1.0" encoding="UTF-8"?>
<svg width="372.37" height="372.57" version="1.1" viewBox="0 0 372.36823 372.57281" xmlns="http://www.w3.org/2000/svg" xmlns:cc="http://creativecommons.org/ns#" xmlns:dc="http://purl.org/dc/elements/1.1/" xmlns:rdf="http://www.w3.org/1999/02/22-rdf-syntax-ns#">
<title>Xbox Logo</title>
<metadata>
<rdf:RDF>
<cc:Work rdf:about="">
<dc:format>image/svg+xml</dc:format>
<dc:type rdf:resource="http://purl.org/dc/dcmitype/StillImage"/>
<dc:title>Xbox Logo</dc:title>
</cc:Work>
</rdf:RDF>
</metadata>
<g transform="translate(-1.5707 12.357)">

<style type="text/css">
	*{fill:#FFFFFF;}
</style>
<path d="m169.19 359.45c-28.683-2.7471-57.723-13.048-82.669-29.324-20.904-13.639-25.625-19.246-25.625-30.435 0-22.475 24.712-61.84 66.992-106.72 24.012-25.486 57.46-55.36 61.078-54.551 7.0309 1.5724 63.25 56.411 84.297 82.225 33.281 40.821 48.581 74.245 40.808 89.147-5.9087 11.328-42.572 33.467-69.508 41.972-22.2 7.0101-51.355 9.9813-75.372 7.6811zm-136.53-83.126c-17.371-26.65-26.147-52.886-30.385-90.832-1.3992-12.53-0.89778-19.697 3.1772-45.415 5.0788-32.054 23.333-69.136 45.267-91.958 9.3419-9.7197 10.176-9.9565 21.563-6.1205 13.828 4.6584 28.596 14.857 51.498 35.567l13.363 12.083-7.2969 8.9643c-33.872 41.613-69.63 100.6-83.105 137.09-7.326 19.839-10.281 39.753-7.1287 48.044 2.1282 5.5975 0.17339 3.5109-6.9528-7.4215zm304.92 4.5326c1.716-8.3772-0.4544-23.763-5.5413-39.28-11.017-33.606-47.84-96.124-81.653-138.63l-10.644-13.381 11.516-10.574c15.036-13.807 25.476-22.074 36.74-29.095 8.8888-5.5402 21.591-10.445 27.051-10.445 3.3663 0 15.217 12.299 24.784 25.721 14.817 20.788 25.718 45.987 31.24 72.22 3.5683 16.95 3.8657 53.231 0.57486 70.139-2.7007 13.876-8.4031 31.875-13.966 44.082-4.1682 9.1466-14.535 26.91-19.078 32.691-2.3357 2.9718-2.3376 2.9653-1.0239-3.4477zm-165.32-247.75c-15.601-7.9227-39.67-16.427-52.965-18.715-4.661-0.80212-12.612-1.2495-17.669-0.99411-10.97 0.55394-10.48-0.0197 7.1178-8.3337 14.63-6.9121 26.834-10.977 43.4-14.455 18.636-3.9131 53.666-3.959 72.005-0.0944 19.808 4.1741 43.133 12.854 56.276 20.942l3.9063 2.4039-8.9625-0.45258c-17.81-0.89937-43.766 6.2959-71.633 19.857-8.4054 4.0905-15.718 7.3575-16.25 7.26-0.53211-0.09754-7.3843-3.4359-15.227-7.4186z"/>
</g>
</svg>
