<?xml version="1.0" encoding="UTF-8"?>
<svg enable-background="new 0 0 81.2 108.4" version="1.1" viewBox="0 0 81.2 108.4" xml:space="preserve" xmlns="http://www.w3.org/2000/svg">
<style type="text/css">
	.st0{fill:rgba(255,255,255,0.1);}
</style>
	<path class="st0" d="m58.4 11.5c-12.3-8.4-29.2-6.8-39.7 3.8-0.8 0.8-2.9 2.5-2.6 3.8 0.1 0.6 0.7 1.1 1.3 1.1 0.9 0 1.4-0.9 1.9-1.5 2.3-2.6 5-4.9 8.1-6.5 6.5-3.5 14.2-4.3 21.2-2.3 3.8 1.1 7.3 3 10.4 5.5 0.6 0.5 1.3 1.4 2.1 1.4 0.7 0 1.3-0.7 1.3-1.4 0-0.8-0.9-1.4-1.4-1.8-0.9-0.8-1.7-1.4-2.6-2.1z"/>
	<path class="st0" d="m23.8 63.4c3.5 2.3 7.5 3.9 11.7 4.6 1.1 0.2 2.1 0.3 3.2 0.4 0.9 0.1 2.2 0.3 2.9-0.2 0.5-0.4 0.7-1.2 0.3-1.8-0.6-0.9-1.9-0.6-2.8-0.6-8.4-0.5-16.3-4.8-21.3-11.6-5.1-6.9-6.7-15.9-4.5-24.1 0.3-1 0.6-1.9 0.9-2.9 0.3-0.8 1-1.7 0.6-2.6-0.3-0.7-1.1-0.9-1.8-0.6-0.8 0.4-1.1 1.7-1.4 2.5-1.5 4.1-2.2 8.6-1.9 13 0.6 9.6 6 18.6 14.1 23.9z"/>
	<path class="st0" d="m59.8 61.9c3.6-2.8 6.6-6.4 8.7-10.4 0.4-0.7 1.1-1.8 0.8-2.6s-1.3-1.1-2-0.7c-0.8 0.5-1.1 1.8-1.5 2.5-0.5 1-1.1 1.9-1.8 2.9-2.5 3.6-5.8 6.5-9.6 8.6-1.9 1.1-4 1.9-6.1 2.5-0.8 0.2-2.1 0.2-2.6 1-0.5 0.7-0.2 1.7 0.6 2 0.9 0.4 2.4-0.3 3.3-0.6 1.2-0.4 2.4-0.8 3.6-1.3 2.4-1 4.6-2.3 6.6-3.9z"/>
	<path class="st0" d="m68.8 42c-0.2 1.1-1.6 4.9 1 4.4 0.8-0.2 1-0.8 1.2-1.5 0.3-1 0.5-2.1 0.6-3.2 0.6-4.3 0.3-8.6-0.8-12.8-0.6-2.2-1.4-4.2-2.5-6.2-0.5-0.9-1.1-1.9-1.7-2.8-0.5-0.7-1-1.7-2-1.5-2.5 0.3-0.3 3 0.3 4 1.1 1.7 1.9 3.6 2.6 5.5 1.7 4.4 2.1 9.3 1.3 14.1z"/>
	<path class="st0" d="m20.7 28.3c2.2-4.9 6.1-8.8 11-11 0.7-0.3 1.3-0.6 2-0.8 0.5-0.2 1.1-0.2 1.5-0.6 0.8-0.7 0.6-2-0.4-2.4-1-0.3-2.7 0.6-3.6 1-1.3 0.5-2.5 1.2-3.6 1.9-4.6 2.9-8.2 7.4-10.1 12.5-1 2.7-1.4 5.5-1.4 8.3 0 1.5 0.1 2.9 0.4 4.4 0.2 1 0.3 3 1.4 3.5 0.6 0.3 1.2 0.1 1.6-0.4 0.5-0.6 0.2-1.3 0-2-0.4-1.5-0.6-3.1-0.7-4.7-0.1-3.3 0.6-6.7 1.9-9.7z"/>
	<path class="st0" d="m21.8 53c7 8.4 19.1 11.3 29.1 6.8 0.9-0.4 2.4-0.8 2.7-1.8 0.3-1.1-0.7-1.9-1.7-1.7-0.6 0.2-1.2 0.6-1.7 0.9-0.6 0.3-1.2 0.5-1.9 0.8-1.3 0.5-2.7 0.8-4.1 1-5.4 0.8-11.1-0.4-15.7-3.5-1.3-0.8-2.4-1.8-3.5-2.9-1-1.1-1.8-2.3-2.7-3.4-0.7-0.9-2.2-0.8-2.5 0.5-0.2 1 1.3 2.5 2 3.3z"/>
	<path class="st0" d="m56.4 55.9c0.9 0 1.7-1.1 2.3-1.7 0.6-0.7 1.3-1.4 1.8-2.2 0.5-0.6 1.3-1.4 1.2-2.3 0-0.8-0.7-1.4-1.5-1.3-0.9 0.1-1.3 1.1-1.8 1.8-0.6 0.8-1.2 1.5-1.9 2.2-0.5 0.5-1.4 1.1-1.5 1.9 0 0.8 0.6 1.6 1.4 1.6z"/>
	<path class="st0" d="m62.3 25.1c-3.3-5.8-8.9-10.1-15.4-11.7-1.7-0.4-3.4-0.7-5.2-0.8-0.6 0-1.3-0.1-1.8 0.3s-0.6 1.1-0.3 1.7 0.8 0.7 1.4 0.7c1 0.1 1.9 0.1 2.9 0.2 1.7 0.2 3.4 0.7 5 1.3 5.9 2.3 10.7 7.3 12.7 13.3 1 3.1 1.4 6.4 1 9.6-0.2 1.6-0.6 3.1-1.1 4.7-0.4 1.1 0.2 2.7 1.7 2.1 0.8-0.3 0.9-1.3 1.2-2 0.3-0.9 0.5-1.8 0.7-2.6 0.4-1.9 0.5-3.9 0.4-5.9-0.3-3.8-1.3-7.6-3.2-10.9z"/>
	<path class="st0" d="m54.3 27.1c2.3-2.1-4.7-5.9-6.1-6.5-1.8-0.8-3.7-1.3-5.6-1.5-0.9-0.1-1.8-0.1-2.7-0.1-0.8 0-1.8 0-2.4 0.6-0.5 0.5-0.5 1.3 0 1.8 0.5 0.6 1.3 0.4 2 0.3 1.9-0.2 3.9 0 5.7 0.6 1.8 0.5 3.5 1.4 5 2.5 0.7 0.5 1.3 1.1 2 1.8 0.5 0.7 1.3 1.2 2.1 0.5z"/>
	<path class="st0" d="m27.6 28.2c1 0 1.7-1.3 2.3-1.9 0.8-0.8 1.6-1.5 2.6-2.1 0.7-0.5 1.9-0.8 2.2-1.6s-0.3-1.7-1.1-1.8c-0.9-0.1-1.8 0.7-2.5 1.1-0.9 0.6-1.8 1.3-2.6 2-0.7 0.6-1.8 1.5-2.1 2.4-0.4 0.9 0.2 1.9 1.2 1.9z"/>
	<path class="st0" d="m24.2 29.8c-3.7 8.1-0.7 18 6.9 22.8 1.1 0.7 3.9 2.7 4.9 1.1 0.5-0.8 0.1-1.6-0.7-2-1-0.5-2-0.9-2.9-1.5-3.6-2.3-6.1-6.1-6.8-10.4-0.4-2.5-0.2-5.1 0.6-7.5 0.3-0.9 1.1-1.9 0.4-2.8-0.7-0.8-2-0.6-2.4 0.3z"/>
	<path class="st0" d="m54.8 48.8c3.3-4.1 4.8-9.5 3.9-14.7-0.2-1.2-1.2-6.8-3.5-5.1-1 0.7-0.4 1.8 0 2.6 0.5 1.3 0.8 2.7 1 4.1 0.5 5.1-1.6 10.2-5.6 13.4-2 1.7-4.5 2.8-7.1 3.2-1 0.2-2.6-0.1-3.5 0.5s-0.7 2 0.2 2.4c1.1 0.5 3 0 4.2-0.3 1.3-0.3 2.6-0.7 3.8-1.2 2.6-1 4.8-2.7 6.6-4.9z"/>
	<path class="st0" d="m50.6 41.9c1.8 0 1.9-3.2 2-4.5 0.1-1.2 0.2-4.6-1.9-4.1-0.8 0.2-1.1 0.9-1 1.6 0.1 0.9 0.3 1.8 0.2 2.8-0.2 1.2-1.6 4.2 0.7 4.2z"/>
	<path class="st0" d="m43.9 28.7c0.9 0.3 1.8 0.8 2.5 1.4 0.5 0.4 1 1.1 1.6 1.4 0.8 0.3 1.7-0.1 1.9-0.9s-0.3-1.3-0.8-1.8c-1.1-1.1-2.9-2.6-4.5-2.8-1.6-0.1-2.2 2.2-0.7 2.7z"/>
	<path class="st0" d="m33.7 27.8c-2.8 2.1-4.7 5.6-4.8 9.1 0 0.7 0.1 1.3 0.8 1.6 0.6 0.2 1.3 0 1.7-0.5 0.4-0.6 0.2-1.6 0.4-2.4 0.2-0.9 0.4-1.7 0.8-2.5 0.7-1.5 1.9-2.7 3.3-3.6 0.7-0.4 1.4-0.7 2.1-1 0.7-0.2 1.7-0.2 2.2-0.7 0.5-0.4 0.6-1.2 0.3-1.7-0.4-0.7-1.1-0.7-1.7-0.6-1.9 0.4-3.6 1.2-5.1 2.3z"/>
	<path class="st0" d="m37.9 48.7c3 0.8 6.3 0.3 9-1.4 1-0.6 3-1.8 2.8-3.1-0.1-0.6-0.5-1.1-1.1-1.2-0.8-0.1-1.3 0.5-1.9 1-2.4 2.1-5.7 2.8-8.7 1.8-1.4-0.4-2.7-1.3-3.8-2.3-0.8-0.8-1.8-3-3.2-1.6-1.3 1.3 0.8 3.1 1.7 4 1.5 1.3 3.3 2.3 5.2 2.8z"/>
	<path class="st0" d="m42.8 38.9c-0.5 0.6-1.1 0.6-1.7 1-0.8 0.5-0.8 1.7-0.1 2.2 1.5 1.1 3.8-1.2 4.5-2.4 0.6-1.1 1.4-4-0.5-4.4-2-0.3-1.3 2.6-2.2 3.6z"/>
	<path class="st0" d="m35.2 1.8c0.1 0.8 0.7 1.2 1.5 1.2 1.1 0 2.3-0.2 3.4-0.2 2.2 0 4.4 0.1 6.5 0.5 4.2 0.7 8.2 2.2 11.9 4.4 7.2 4.3 12.7 11.3 15.2 19.3 0.6 2 1.1 4.2 1.3 6.3 0.1 1.2-0.3 4.3 1.8 4 2-0.3 1-3.7 0.9-4.9-0.3-2.1-0.7-4.2-1.4-6.2-2.6-8.2-8-15.4-15.2-20.1-3.9-2.6-8.3-4.4-12.9-5.3-2.4-0.5-4.9-0.8-7.3-0.8-1.3 0-2.6 0.1-3.9 0.2-0.9 0.1-2 0.4-1.8 1.6z"/>
	<path class="st0" d="m13.4 58.3c-6.3-8.1-8.5-18.9-6.2-28.9 2.3-9.9 9.1-18.5 18.2-23 1.1-0.5 5.5-1.7 3.6-3.6-0.8-0.8-1.9-0.2-2.8 0.2-1.3 0.5-2.5 1.1-3.7 1.8-4.3 2.4-8.2 5.7-11.2 9.7-6.4 8.2-9 18.9-7.3 29.1 1 5.6 3.2 10.9 6.5 15.4 0.8 1.1 1.7 2.2 2.6 3.2 0.7 0.7 1.6 2.1 2.8 1.7 1.1-0.4 1-1.6 0.3-2.4-0.9-1.1-1.9-2.1-2.8-3.2z"/>
	<path class="st0" d="m53.2 69.5c-9.9 3.8-21.3 2.8-30.4-2.7-0.8-0.5-1.6-1.3-2.6-0.7-1.1 0.7-0.5 1.9 0.3 2.5 2.1 1.4 4.5 2.6 6.9 3.5 4.9 1.9 10.2 2.7 15.4 2.4 2.9-0.2 5.8-0.7 8.6-1.5 1-0.3 3-0.6 3.4-1.6 0.6-1.2-0.5-2.4-1.6-1.9z"/>
	<path class="st0" d="m76.4 41.5c-1.1-0.2-1.5 0.8-1.7 1.7-0.2 1.3-0.5 2.6-0.9 3.9-0.7 2.3-1.6 4.6-2.8 6.8-2.4 4.3-5.7 8.1-9.6 11.1-0.9 0.7-1.9 1.3-2.9 1.9-0.8 0.5-1.8 1.2-1.1 2.2 0.6 1.1 1.7 0.6 2.6 0.1 1.1-0.7 2.2-1.4 3.3-2.2 4-3 7.4-6.9 9.8-11.3 1.3-2.3 2.4-4.8 3.2-7.3 0.4-1.3 0.8-2.7 1-4.1 0.3-1.1 0.6-2.6-0.9-2.8z"/>
	<path class="st0" d="m10.1 68c3.8 3.8 8.2 6.8 13 9 1.2 0.5 2.5 1 3.7 1.5 0.9 0.3 2.6 1.2 3.5 0.5 0.8-0.6 0.7-1.8-0.2-2.3-1.1-0.6-2.6-0.8-3.8-1.3-9.7-3.7-17.8-11.2-22.2-20.5-2.7-5.6-4.1-11.9-4-18.1-0.3 5.4 0.5 10.7 1.8 15.9 0.4 1.4 0.7 2.8 1.2 4.2 0.4 1.4 0.7 3 1.5 4.2 1.4 2.6 3.4 4.9 5.5 6.9z"/>
	<path class="st0" d="m45.6 77.6c-2.9 0.3-5.9 0.3-8.8 0-1-0.1-2.6-0.8-3.3 0.4-0.8 1.2 0.4 2 1.5 2.2 2.7 0.4 5.4 0.5 8.2 0.4 1 0 3 0.2 3.7-0.7 0.7-1-0.1-2.4-1.3-2.3z"/>
	<path class="st0" d="m78.5 57.6c-3.6 6.4-8.9 11.9-15.3 15.7-1 0.6-3.5 1.3-3 2.9 0.6 2.1 3.1 0.2 4.1-0.3 3.1-1.8 6-4.1 8.6-6.6 3-3 5.7-6.3 7.8-10 0.3-2.6 0.5-5.2 0.6-7.6-0.8 2-1.8 4-2.8 5.9z"/>
	<path class="st0" d="m40.1 101.4c3-8.7 8.9-16.3 16.6-21.2 0.7-0.5 1.6-0.9 1.5-1.9-0.1-0.9-1-1.3-1.8-1.1-1 0.3-2 1.2-2.8 1.8-0.9 0.7-1.9 1.4-2.8 2.1-3.6 3-6.6 6.5-9.1 10.4-2.7 4.3-4.6 9-5.6 14 0.8 0.5 1.7 0.9 2.5 1.2 0.4-1.7 0.9-3.6 1.5-5.3z"/>
	<path class="st0" d="m17.1 82.1c0.9 0 1.6-1 1.3-1.8-0.3-0.9-1.8-1.4-2.6-1.9-2.1-1.4-4.1-2.9-6-4.6 1 2 2 3.9 3.1 5.9 0.7 0.5 1.4 0.9 2.1 1.4 0.6 0.3 1.4 1 2.1 1z"/>
	<path class="st0" d="m38.7 84.7c-4.2 0-8.3-0.6-12.4-1.6l-3-0.9c-0.7-0.2-1.6-0.8-2.4-0.7-0.7 0-1.3 0.7-1.3 1.4 0 0.9 0.7 1.2 1.5 1.4 3.9 1.4 7.9 2.4 11.9 2.8 1.8 0.2 3.8 0.5 5.6 0.3 1.8-0.1 1.9-2.7 0.1-2.7z"/>
	<path class="st0" d="m34.3 95.1c1.3 0.1 1.9-1.6 0.9-2.4-0.6-0.5-1.6-0.3-2.4-0.4l-3-0.3c-3.7-0.5-7.3-1.4-10.8-2.7 0.9 1.3 1.9 2.5 2.9 3.7 4 1.1 8.2 1.8 12.4 2.1z"/>
	<path class="st0" d="m31.6 102.2c1.3 0 1.8-1.7 0.8-2.5-0.6-0.4-1.3-0.2-1.9-0.3-0.9 0-1.8-0.1-2.8-0.2 1.1 1 2.2 2 3.3 2.9 0.2 0.1 0.4 0.1 0.6 0.1z"/>
	<path class="st0" d="m44 108.2c0.9 0.1 1.9 0.1 2.8 0.1 4.3-14.3 15.8-25.6 30.3-29.5 0.3-1 0.5-2 0.8-3-16.4 3.8-29.4 16.4-33.9 32.4z"/>
	<path class="st0" d="m59.7 95.1c-1.1 1.2 0.4 2.9 1.8 2.1 0.7-0.4 1.2-1.2 1.8-1.7 0.6-0.6 1.2-1.2 1.9-1.7 2.7-2.3 5.6-4.2 8.7-5.8 0.5-1.2 1-2.4 1.5-3.7-5.9 2.5-11.3 6.1-15.7 10.8z"/>
	<path class="st0" d="m57.4 99.9c-1.6-1.2-2.9 1.7-3.5 2.8-1.1 1.7-2 3.5-2.8 5.3 1.2-0.2 2.3-0.4 3.4-0.8 0.7-1.4 1.5-2.8 2.4-4.1 0.6-0.9 1.9-2.3 0.5-3.2z"/>
</svg>
