<?xml version="1.0" encoding="UTF-8"?>
<svg enable-background="new 0 0 94.4 71.5" version="1.1" viewBox="0 0 94.4 71.5" xml:space="preserve" xmlns="http://www.w3.org/2000/svg">
<style type="text/css">
	.st1{fill:#FFFFFF;}
	.st0{fill:#111;}
</style>
	<path class="st0" d="m7.4 20.2s-2.3 3.7-3.8 7.8 9.6-3.7 9.6-3.7l-5.8-4.1z"/>
	<path class="st0" d="m79.5 30.7s2.3 3.7 3.8 7.8-9.6-3.7-9.6-3.7l5.8-4.1z"/>
	<path class="st0" d="m87.1 19.8s2.2 3.7 3.7 7.8-9.6-3.8-9.6-3.8l5.9-4z"/>
	<path class="st0" d="m23.9 61.6s1.7-2.6 5.1-5 7.6-8.3 17.9-8.1 17.9 7.5 17.9 7.5 3.3 2.2 5.6 5.6l4.5-8.1-27.6-12.1-15.3 4-8.9 12.6 0.8 3.6z"/>
	<path class="st0" d="m16.7 31.2s2.3 3.7 3.8 7.8-9.6-3.7-9.6-3.7l5.8-4.1z"/>
			<path class="st1" d="m12.8 70.1c-2.5 0-4.8-1.1-6.4-3-0.8-0.9-1.9-3-2.1-3.5-0.1-0.2-0.2-0.6-0.4-1.2-0.1-0.3-0.2-0.5-0.3-0.8v-0.1c-1.4-3.9-2.1-9.1-2.1-16 0-6 1.4-12.8 3.9-18.3 0.2-0.5 0.8-0.9 1.3-0.9s1 0.3 1.2 0.7c0.3 0.4 0.8 0.8 1.1 0.8l2 0.4c1.5 0.3 2.5 1.6 2.5 3v2.2 10.3c0 1.4 1.1 2.6 2.6 2.6h3.6c2.7 0 5 2.2 5 5v6.2c0 0.8-0.3 1.6-0.8 2.3-1 1.4-2.5 4.2-2.5 4.2v0.1l-1.1 1.8c-0.2 0.3-0.5 0.8-0.6 0.9-1.7 2-4.3 3.3-6.9 3.3z"/>
			<path class="st0" d="m6.6 27.6v0c0.5 0.7 1.3 1.3 2 1.5l2 0.4c0.8 0.2 1.4 0.9 1.4 1.7v2.2 10.3c0 2.2 1.8 3.9 3.9 3.9h3.6c2 0 3.6 1.6 3.6 3.6v6.2c0 0.5-0.2 1-0.5 1.5-1.1 1.5-2.6 4.4-2.6 4.4l-1.1 1.8c-0.1 0.3-0.5 0.8-0.5 0.8-1.3 1.7-3.3 2.9-5.6 2.9-2.2 0-4.1-1-5.4-2.6-0.7-0.7-1.6-2.6-1.9-3.2-0.1-0.2-0.3-0.7-0.4-1.1-0.1-0.3-0.2-0.5-0.3-0.8v-0.1c-1.5-4.1-2-9.5-2-15.6-0.1-5.9 1.4-12.6 3.8-17.8-0.1 0.1-0.1 0 0 0m0-2.7c-1.1 0-2.1 0.7-2.6 1.7-2.5 5.6-4 12.7-4 18.9 0 6.6 0.6 11.8 1.9 15.7l0.1 0.2c0.1 0.2 0.1 0.4 0.2 0.5v0.1c0.1 0.3 0.2 0.5 0.3 0.8 0.2 0.6 0.4 1 0.5 1.2 0.2 0.5 1.3 2.7 2.3 3.9 1.9 2.2 4.6 3.5 7.5 3.5 3.1 0 6-1.5 7.8-4 0.1-0.1 0.4-0.6 0.6-0.9l1.1-1.7 0.1-0.1 0.1-0.1c0.4-0.7 1.5-2.9 2.4-4 0.7-0.9 1-2 1-3.1v-6.2c0-3.5-2.8-6.3-6.3-6.3h-3.6c-0.7 0-1.2-0.5-1.2-1.2v-10.3-2.2c0-2.1-1.5-3.9-3.6-4.4l-1.9-0.3c-0.2-0.2-0.3-0.3-0.3-0.4-0.6-0.8-1.5-1.3-2.4-1.3z"/>
			<path class="st1" d="m81.6 70.1c-2.6 0-5.2-1.3-6.7-3.4-0.1-0.1-0.4-0.6-0.6-0.9l-1.2-1.8v-0.1s-1.4-2.8-2.5-4.2c-0.5-0.6-0.8-1.5-0.8-2.3v-6.2c0-2.7 2.2-5 5-5h3.6c1.4 0 2.6-1.1 2.6-2.6v-10.3-2.2c0-1.5 1-2.7 2.5-3l2-0.4c0.2-0.1 0.8-0.4 1-0.8 0.3-0.4 0.7-0.7 1.2-0.7 0.6 0 1.1 0.3 1.3 0.9 2.4 5.5 3.9 12.3 3.9 18.3 0 6.7-0.7 11.8-2 15.6l-0.2 0.5c-0.1 0.3-0.2 0.5-0.3 0.8-0.2 0.5-0.3 0.9-0.4 1.2-0.2 0.5-1.3 2.6-2.1 3.5-1.5 2-3.8 3.1-6.3 3.1z"/>
			<path class="st0" d="m87.8 27.6s0.1 0.1 0 0c2.4 5.2 3.8 11.9 3.8 17.8 0 6.1-0.5 11.5-2 15.6v0.1c-0.1 0.3-0.2 0.5-0.3 0.8-0.1 0.4-0.3 0.8-0.4 1.1-0.2 0.5-1.2 2.4-1.9 3.2-1.3 1.6-3.2 2.6-5.4 2.6-2.3 0-4.4-1.1-5.6-2.9 0 0-0.4-0.5-0.5-0.8l-1.1-1.8s-1.5-2.9-2.6-4.4c-0.3-0.4-0.5-0.9-0.5-1.5v-6.2c0-2 1.6-3.6 3.6-3.6h3.6c2.2 0 3.9-1.8 3.9-3.9v-10.3-2.2c0-0.8 0.6-1.5 1.4-1.7l2-0.4c0.7-0.1 1.5-0.8 2-1.5-0.1 0.1 0 0 0 0m0-2.7c-1 0-1.9 0.5-2.4 1.3l-0.3 0.3-1.9 0.3c-2.1 0.4-3.6 2.3-3.6 4.4v2.2 10.3c0 0.7-0.5 1.2-1.2 1.2h-3.6c-3.5 0-6.3 2.8-6.3 6.3v6.2c0 1.1 0.4 2.2 1 3.1 0.8 1.1 2 3.3 2.4 4l0.1 0.1 0.1 0.1 1.1 1.7c0.2 0.4 0.5 0.8 0.6 0.9 1.8 2.5 4.8 4 7.8 4 2.9 0 5.6-1.3 7.5-3.5 1-1.1 2.1-3.4 2.3-3.9 0.1-0.3 0.3-0.7 0.5-1.2 0.1-0.3 0.2-0.5 0.3-0.8v-0.1c0.1-0.2 0.1-0.3 0.2-0.5l0.1-0.2c1.3-3.9 1.9-9.1 1.9-15.7 0-6.2-1.5-13.2-4-18.9-0.5-0.9-1.5-1.6-2.6-1.6z"/>
			<path class="st1" d="m68.2 56.6c-0.4 0-0.8-0.1-1-0.4-1-0.9-2.1-1.7-3.3-2.4-4.4-3-10.1-4.7-16.5-4.8-7.3 0.1-14.7 2.8-19.8 7.2-0.2 0.2-0.5 0.3-0.8 0.4h-0.1-0.1c-0.9 0-1.6-0.7-1.6-1.6v-5.2c0-2-1.6-3.7-3.7-3.7h-3.6c-2.2 0-3.9-2.3-3.9-5.3 0-1.5 0.9-2.7 2.6-3.5 2-1 3.4-2.2 3.8-3.3 0-0.1 0-0.1 0.1-0.2h-3.4c-1.8 0-3.1-1.2-3.1-3.1v-1.8c0-0.4-0.3-0.8-0.6-0.9h-0.1l-3.5-0.7c-1-0.1-1.6-0.6-2-1.3-0.2-0.4-0.3-0.9-0.3-1.4 0-0.7 0.2-1.5 0.5-2.4v-0.1c2.3-5 5.3-9.4 8.2-12.4l1.1-1.1c5.6-5.4 9-7.4 15.5-7.4 3.4 0 5.9 0.9 8.4 1.8 2 1 4 1.7 6.3 1.7 2.3-0.1 4.3-0.8 6.4-1.5 2.5-0.9 5-1.8 8.4-1.8 6.9 0 10.3 2.2 16.6 8.4 3 2.9 5.9 7.3 8.2 12.4v0.1c0.6 1.5 0.7 2.8 0.2 3.8-0.4 0.7-1 1.3-1.9 1.4l-3.5 0.7c-0.4 0.1-0.7 0.5-0.7 0.9v1.8c0 1.8-1.2 3.1-3.1 3.1h-3.4s0 0.1 0.1 0.2c0.4 1.1 1.8 2.3 3.8 3.3 1.7 0.8 2.6 1.9 2.6 3.5 0 3-1.7 5.3-3.9 5.3h-3.6c-2 0-3.6 1.6-3.6 3.7v5c-0.1 0.9-0.8 1.6-1.7 1.6zm-33.4-26.4v-2.2l-0.5-0.8h-0.4l-0.5 0.8v2.2h1.4zm26-2.1c-0.5 0-0.9 0.4-0.9 0.9s0.4 0.9 0.9 0.9 0.9-0.4 0.9-0.9c-0.1-0.6-0.4-0.9-0.9-0.9zm5-5c-0.5 0-0.9 0.4-0.9 0.9s0.4 0.9 0.9 0.9 0.9-0.4 0.9-0.9-0.4-0.9-0.9-0.9zm-10.1 0c-0.5 0-0.9 0.4-0.9 0.9s0.4 0.9 0.9 0.9 0.9-0.4 0.9-0.9-0.4-0.9-0.9-0.9zm-15.3 1.5v-1.4h-2.2l-0.8 0.5v0.4l0.8 0.5h2.2zm-10.5 0l0.8-0.5v-0.4l-0.8-0.5h-2.2v1.4h2.2zm4.4-4l0.5-0.8v-2.2h-1.4v2.2l0.5 0.8h0.4zm26.5-2.6c-0.5 0-0.9 0.4-0.9 0.9s0.4 0.9 0.9 0.9 0.9-0.4 0.9-0.9-0.4-0.9-0.9-0.9z"/>
			<path class="st0" d="m62.1 2.7c6.4 0 9.5 2 15.6 8 2.8 2.8 5.7 7 8 12 0.4 1.1 0.5 2.1 0.2 2.7-0.3 0.5-0.7 0.7-0.9 0.7l-3.5 0.7c-1.1 0.2-1.8 1.2-1.8 2.3v1.8c0 1.1-0.7 1.7-1.7 1.7h-3.4c-0.7 0-1.9 0.4-1.2 2 0.6 1.5 2.2 2.9 4.5 4.1 1 0.4 1.8 1.1 1.8 2.2 0 2.2-1.1 3.9-2.5 3.9h-3.6c-2.8 0-5 2.2-5 5v5.2c0 0.1-0.1 0.2-0.2 0.2s-0.1 0-0.2-0.1c-1.1-0.9-2.2-1.8-3.4-2.5-5-3.4-11.1-4.9-17.3-5-7.4 0.1-15.1 2.7-20.7 7.5l-0.1 0.1c-0.1 0-0.2-0.1-0.2-0.2v-5.2c0-2.8-2.2-5-5-5h-3.6c-1.4 0-2.5-1.8-2.5-3.9 0-1.1 0.8-1.8 1.8-2.2 2.3-1.1 4-2.6 4.5-4.1 0.6-1.6-0.5-2-1.2-2h-3.4c-1 0-1.7-0.6-1.7-1.7v-1.8c0-1.1-0.8-2-1.8-2.2l-3.5-0.7c-0.2 0-0.6-0.2-0.9-0.7-0.1-0.2-0.2-0.5-0.2-0.8 0-0.5 0.1-1.2 0.4-1.9 2.3-4.9 5.1-9.2 8-12 6.1-6 9.2-8 15.6-8 6 0 9.4 3.2 14.8 3.4 4.9-0.2 8.3-3.5 14.3-3.5m-28.3 19.2h0.7c0.4 0 0.7-0.2 0.9-0.5l0.6-1c0.1-0.2 0.2-0.4 0.2-0.6v-2.5c0-0.6-0.5-1.1-1.1-1.1h-1.9c-0.6 0-1.1 0.5-1.1 1.1v2.5c0 0.2 0.1 0.4 0.2 0.6l0.6 1c0.1 0.3 0.5 0.5 0.9 0.5m27-0.8c1.2 0 2.2-1 2.2-2.2s-1-2.2-2.2-2.2-2.2 1-2.2 2.2 1 2.2 2.2 2.2m5 5.1c1.2 0 2.2-1 2.2-2.2s-1-2.2-2.2-2.2-2.2 1-2.2 2.2 1 2.2 2.2 2.2m-10.1 0c1.2 0 2.2-1 2.2-2.2s-1-2.2-2.2-2.2-2.2 1-2.2 2.2 1 2.2 2.2 2.2m-17.5-0.2h2.5c0.6 0 1.1-0.5 1.1-1.1v-1.9c0-0.6-0.5-1.1-1.1-1.1h-2.5c-0.2 0-0.4 0.1-0.6 0.2l-1 0.6c-0.3 0.2-0.5 0.6-0.5 0.9v0.7c0 0.4 0.2 0.7 0.5 0.9l1 0.6c0.2 0.1 0.4 0.2 0.6 0.2m-10.7 0h2.5c0.2 0 0.4-0.1 0.6-0.2l1-0.6c0.3-0.2 0.5-0.6 0.5-0.9v-0.7c0-0.4-0.2-0.7-0.5-0.9l-1-0.6c-0.2-0.1-0.4-0.2-0.6-0.2h-2.5c-0.6 0-1.1 0.5-1.1 1.1v1.9c0 0.6 0.5 1.1 1.1 1.1m5.6 5.6h1.9c0.6 0 1.1-0.5 1.1-1.1v-2.5c0-0.2-0.1-0.4-0.2-0.6l-0.6-1c-0.2-0.3-0.6-0.5-0.9-0.5h-0.7c-0.4 0-0.7 0.2-0.9 0.5l-0.6 1c-0.1 0.2-0.2 0.4-0.2 0.6v2.5c0 0.6 0.5 1.1 1.1 1.1m27.7-0.5c1.2 0 2.2-1 2.2-2.2s-1-2.2-2.2-2.2-2.2 1-2.2 2.2 1 2.2 2.2 2.2m1.3-31.1c-3.6 0-6.4 1-8.8 1.9-2 0.7-3.8 1.4-5.9 1.5-2.1-0.1-3.9-0.7-5.9-1.5-2.5-0.9-5.3-1.9-8.9-1.9-6.6 0-10.3 2-15.4 6.7l-2.1 2.1c-3.1 3-6.1 7.6-8.5 12.7v0.1 0.1c-0.4 1-0.6 2-0.6 2.9 0 0.7 0.2 1.4 0.5 2 0.6 1.1 1.6 1.9 2.8 2.2l3.2 0.7v1.5c0 2.6 1.9 4.4 4.5 4.4h0.4c-0.4 0.3-0.9 0.6-1.5 0.9-2.8 1.2-3.4 3.2-3.4 4.7 0 3.7 2.3 6.6 5.2 6.6h3.6c1.3 0 2.3 1 2.3 2.3v5.1c0 1.6 1.3 3 3 3h0.4c0.6-0.1 1.1-0.3 1.6-0.7 4.9-4.2 11.9-6.8 18.9-6.9 6.1 0.1 11.5 1.6 15.7 4.5 1.1 0.7 2.2 1.5 3.1 2.3 0.5 0.5 1.2 0.7 1.9 0.7 1.6 0 3-1.3 3-3v-5.2c0-1.3 1-2.3 2.3-2.3h3.6c2.9 0 5.2-2.9 5.2-6.6 0-1.5-0.6-3.5-3.4-4.7-0.6-0.3-1.1-0.6-1.5-0.9h0.4c2.6 0 4.5-1.9 4.5-4.4v-1.5l3.2-0.7c1.2-0.3 2.2-1 2.8-2.2 0.5-0.9 0.8-2.5-0.1-4.9v-0.1-0.1c-2.2-4.3-4.8-8.3-7.4-11.3v-0.1l-1.2-1.2c-6.2-6.1-10.1-8.7-17.5-8.7z"/>
</svg>
