<?xml version="1.0" encoding="UTF-8"?>
<svg enable-background="new 0 0 129 118.6" version="1.1" viewBox="0 0 129 118.6" xml:space="preserve" xmlns="http://www.w3.org/2000/svg">
<style type="text/css">
	.st0{fill:#231F20;}
</style>
<path class="st0" d="m6.4 118.6h11.7c3.5 0 6.4-2.9 6.4-6.4v-66.1c0-3.5-2.9-6.4-6.4-6.4h-11.7c-3.5 0-6.4 2.9-6.4 6.4v66.1c0 3.5 2.9 6.4 6.4 6.4zm122.6-66.1c0-6.5-5.7-11.6-12.2-11.6h-35.9c-1.4 0-2.5-1.3-2.2-2.7l5.3-27.1 0.2-2c0-2.5-1-4.8-2.7-6.5-3.6-3.6-9.4-3.5-12.9 0l-33.9 35.8c-2.3 2.2-3.6 5.3-3.6 8.6v59.3c0 6.7 5.5 12.2 12.2 12.2h55.1c16.7 0.1 30.6-31.2 30.6-66z"/>
</svg>
