<?xml version="1.0" encoding="UTF-8"?>
<svg enable-background="new 0 0 41.7 41.2" version="1.1" viewBox="0 0 41.7 41.2" xml:space="preserve" xmlns="http://www.w3.org/2000/svg">
<style type="text/css">
	.st0{fill:#FFFFFF;}
</style>
<path class="st0" d="m7.1 36.1l4.6-3.3c1.4 1 2.9 1.8 4.5 2.3l-0.1 5.6c2.6 0.6 5.4 0.7 8 0.3l0.3-5.6c1.6-0.4 3.2-1 4.6-1.9l4.3 3.6c0.8-0.6 1.5-1.2 2.2-1.9 1.2-1.2 2.3-2.6 3.1-4l-4.2-3.7c0.8-1.6 1.3-3.3 1.6-5.1l5.6-1.1c0.1-2.7-0.3-5.4-1.2-7.9l-5.4 0.8c-0.7-1.7-1.8-3.3-3.2-4.7l2.6-5c-2.1-1.8-4.5-3.1-7-3.9l-2.7 4.9c-2-0.5-4.1-0.6-6.1-0.3l-2.4-5.2c-2.6 0.6-5 1.7-7.3 3.2l2.1 5.2c-0.4 0.3-0.8 0.6-1.1 1-1.1 1.1-2 2.3-2.7 3.6l-5.4-1.4c-1.1 2.5-1.8 5.1-1.9 7.8l5.6 1.6c0.1 1.8 0.5 3.6 1.2 5.3l-4.4 3.4c1 1.9 2.3 3.8 3.9 5.4 0.2 0.4 0.6 0.7 0.9 1zm9.6-19.9c2.3-2.3 6.1-2.3 8.4 0s2.3 6.1 0 8.4-6.1 2.3-8.4 0-2.3-6.1 0-8.4z"/>
</svg>
