<?xml version="1.0" encoding="UTF-8"?>
<svg enable-background="new 0 0 90.3 83.1" version="1.1" viewBox="0 0 90.3 83.1" xml:space="preserve" xmlns="http://www.w3.org/2000/svg">
<style type="text/css">
	.st0{fill:#FFFFFF;}
</style>
<path class="st0" d="M45.2,0C20.2,0,0,20.2,0,45.2C0,61.1,8.2,75,20.6,83.1c-0.1-3.3-0.2-6.9-0.2-11c0-16.7,9.6-30.5,22-32.3  c-6.6-1.3-11.6-7.1-11.6-14.1c0-7.9,6.4-14.3,14.3-14.3s14.3,6.4,14.3,14.3c0,7-5,12.8-11.6,14.1c12.4,1.8,22,15.6,22,32.3  c0,4,0,7.7-0.1,11C82.1,75,90.3,61,90.3,45.2C90.3,20.2,70.1,0,45.2,0z"/>
</svg>
