<?xml version="1.0" encoding="UTF-8"?>
<svg enable-background="new 0 0 87.9 77.5" version="1.1" viewBox="0 0 87.9 77.5" xml:space="preserve" xmlns="http://www.w3.org/2000/svg">
<style type="text/css">
	.st0{fill:#231F20;}
</style>
<path class="st0" d="m87.9 38.7c0-21.4-19.7-38.7-43.9-38.7-24.3 0-44 17.3-44 38.7s19.7 38.7 44 38.7h44l-13-11.3c8-7 12.9-16.7 12.9-27.4zm-59.5 4.1c-2.5 0-4.3-1.7-4.3-4.2s1.8-4.3 4.3-4.3c2.4 0 4.2 1.8 4.2 4.3s-1.7 4.2-4.2 4.2zm16.2 0c-2.5 0-4.3-1.7-4.3-4.2s1.8-4.3 4.3-4.3c2.4 0 4.2 1.8 4.2 4.3s-1.8 4.2-4.2 4.2zm16.2 0c-2.5 0-4.3-1.7-4.3-4.2s1.8-4.3 4.3-4.3c2.4 0 4.2 1.8 4.2 4.3s-1.8 4.2-4.2 4.2z"/>
</svg>
