<?xml version="1.0" encoding="UTF-8"?>
<svg enable-background="new 0 0 109.8 119.5" version="1.1" viewBox="0 0 109.8 119.5" xml:space="preserve" xmlns="http://www.w3.org/2000/svg">
<style type="text/css">
	.st0{fill:#FFFFFF;}
</style>
<path class="st0" d="m109.8 113.5v-10.8c0-3.3-2.7-5.9-5.9-5.9h-62.4c-3.3 0-5.9 2.7-5.9 5.9v10.8c0 3.3 2.7 5.9 5.9 5.9h62.4c3.3 0.1 5.9-2.6 5.9-5.9zm-61.1-113.5c-6 0-10.8 5.3-10.8 11.3v33.2c0 1.3-1.2 2.3-2.5 2.1l-25.1-4.9-1.8-0.2c-2.3 0-4.5 1-6 2.5-3.3 3.3-3.3 8.7 0 12l33.1 31.3c2 2.1 4.9 3.3 8 3.3h54.9c6.2 0 11.3-5.1 11.3-11.3v-51c0-15.5-28.9-28.3-61.1-28.3z"/>
</svg>
