<?xml version="1.0" encoding="UTF-8"?>
<svg enable-background="new 0 0 825.9 823.4" version="1.1" viewBox="0 0 825.9 823.4" xml:space="preserve" xmlns="http://www.w3.org/2000/svg">
<style type="text/css">
	.st0{fill:#E6E6E6;}
</style>
<polygon class="st0" points="816.5 164.2 751.1 164.2 751.1 82.1 676.4 82.1 676.4 0 523.2 0 523.2 82.1 448.5 82.1 448.5 164.2 377.4 164.2 377.4 82.1 302.7 82.1 302.7 0 149.5 0 149.5 82.1 74.7 82.1 74.7 164.2 0 164.2 0 412.9 74.7 412.9 74.7 495 149.5 495 149.5 577.1 224.2 577.1 224.2 659.2 299 659.2 299 741.3 373.7 741.3 373.7 823.4 452.1 823.4 452.1 741.3 526.9 741.3 526.9 659.2 601.6 659.2 601.6 577.1 676.4 577.1 676.4 495 751.1 495 751.1 412.9 825.9 412.9 825.9 164.2"/>
</svg>
